<svg xmlns="http://www.w3.org/2000/svg" width="6.961" height="6.933" viewBox="0 0 6.961 6.933">
  <path id="Shape_1" d="M374.934,28.76c-.143.145-.294.279-.428.429a.843.843,0,0,1-.725.274,2.99,2.99,0,0,1-1.153-.335,6.258,6.258,0,0,1-2.083-1.623,5.741,5.741,0,0,1-1.016-1.684,2.2,2.2,0,0,1-.17-.939.772.772,0,0,1,.24-.515c.162-.153.313-.311.471-.467a.45.45,0,0,1,.674,0c.129.126.253.252.38.378s.248.244.369.367a.446.446,0,0,1,0,.687c-.154.156-.307.311-.466.462a.1.1,0,0,0-.024.123,2.694,2.694,0,0,0,.42.67,4.785,4.785,0,0,0,1.177,1.065c.1.062.2.1.307.161a.093.093,0,0,0,.129-.024c.154-.158.313-.313.469-.469a.445.445,0,0,1,.671,0c.253.249.5.5.754.751A.45.45,0,0,1,374.934,28.76Zm-2.39-4.168.081-.574a2.566,2.566,0,0,1,1.463.727,2.534,2.534,0,0,1,.717,1.376l-.574.1a1.994,1.994,0,0,0-1.687-1.628Zm3.2,1.529a3.682,3.682,0,0,0-3.123-3.015l.081-.574a4.267,4.267,0,0,1,3.616,3.489Z" transform="translate(-369.356 -22.532)"/>
</svg>
